{
	"asset":{
		"generator":"Khronos glTF Blender I/O v4.2.70",
		"version":"2.0"
	},
	"scene":0,
	"scenes":[
		{
			"name":"Scene",
			"nodes":[
				0,
				1,
				2,
				3,
				4,
				5,
				6,
				7,
				8,
				9,
				10,
				11,
				12,
				13,
				14,
				15
			]
		}
	],
	"nodes":[
		{
			"mesh":0,
			"name":"Hammer",
			"rotation":[
				-0.05791674926877022,
				0.05460599809885025,
				-0.6856533288955688,
				0.723563015460968
			],
			"translation":[
				-0.48393210768699646,
				1.129991054534912,
				1.8317248821258545
			]
		},
		{
			"mesh":1,
			"name":"Trigger",
			"rotation":[
				-0.05791674926877022,
				0.05460599809885025,
				-0.6856532692909241,
				0.723563015460968
			],
			"scale":[
				0.15126490592956543,
				0.15126490592956543,
				0.15126490592956543
			],
			"translation":[
				-0.5720474720001221,
				0.563744843006134,
				1.0950053930282593
			]
		},
		{
			"mesh":2,
			"name":"Chamber",
			"rotation":[
				-0.7062634825706482,
				0.03730625659227371,
				0.07521598041057587,
				0.7029528021812439
			],
			"scale":[
				0.47249355912208557,
				0.5710530877113342,
				0.47249358892440796
			],
			"translation":[
				-0.6958827972412109,
				1.3855751752853394,
				0.65012526512146
			]
		},
		{
			"name":"Empty",
			"rotation":[
				0.4999999701976776,
				0.5,
				-0.5000000596046448,
				0.5
			]
		},
		{
			"name":"Empty.001",
			"rotation":[
				0.7071068286895752,
				0,
				0,
				0.7071068286895752
			],
			"translation":[
				0.8627067804336548,
				0,
				0
			]
		},
		{
			"mesh":3,
			"name":"Cylinder",
			"rotation":[
				-0.7062634825706482,
				0.037306249141693115,
				0.07521598786115646,
				0.7029528617858887
			],
			"scale":[
				0.1923966407775879,
				0.6481658816337585,
				0.1923966407775879
			],
			"translation":[
				-0.9146521091461182,
				1.656997799873352,
				-0.665088415145874
			]
		},
		{
			"mesh":4,
			"name":"Cylinder.001",
			"rotation":[
				0.7029526233673096,
				0.07521600276231766,
				-0.03730623051524162,
				0.7062637805938721
			],
			"scale":[
				0.08348827809095383,
				0.4494151175022125,
				0.08348827809095383
			],
			"translation":[
				-0.8572607040405273,
				1.3938138484954834,
				-0.3965192437171936
			]
		},
		{
			"mesh":5,
			"name":"Cylinder.002",
			"rotation":[
				0.7029526233673096,
				0.07521599531173706,
				-0.03730623051524162,
				0.7062637805938721
			],
			"scale":[
				0.14094769954681396,
				0.21746410429477692,
				0.14094769954681396
			],
			"translation":[
				-0.9548680782318115,
				1.3902580738067627,
				-1.004104495048523
			]
		},
		{
			"mesh":6,
			"name":"Plane",
			"rotation":[
				-0.06217259541153908,
				0.06217258796095848,
				-0.7043681740760803,
				0.7043682336807251
			],
			"translation":[
				-0.5771275758743286,
				0.5578434467315674,
				1.0614724159240723
			]
		},
		{
			"mesh":7,
			"name":"Plane.001",
			"rotation":[
				-0.05791674926877022,
				0.05460599809885025,
				-0.6856533288955688,
				0.723563015460968
			],
			"translation":[
				-0.9354105591773987,
				1.0707294940948486,
				-0.9929447174072266
			]
		},
		{
			"mesh":8,
			"name":"Cylinder.003",
			"rotation":[
				-0.7062634825706482,
				0.03730623796582222,
				0.07521598786115646,
				0.7029528021812439
			],
			"scale":[
				-0.0986597016453743,
				-0.571397066116333,
				-0.0986597016453743
			],
			"translation":[
				-0.711274266242981,
				1.6673532724380493,
				0.648701548576355
			]
		},
		{
			"mesh":9,
			"name":"Cylinder.004",
			"rotation":[
				-0.7062634825706482,
				0.03730623796582222,
				0.07521598786115646,
				0.7029528021812439
			],
			"scale":[
				-0.0986597016453743,
				-0.571397066116333,
				-0.0986597016453743
			],
			"translation":[
				-0.6804814338684082,
				1.095777153968811,
				0.6489304304122925
			]
		},
		{
			"mesh":10,
			"name":"Cylinder.005",
			"rotation":[
				-0.6492502093315125,
				0.38378506898880005,
				-0.2879926264286041,
				0.5901216268539429
			],
			"scale":[
				-0.0986596941947937,
				-0.5713970065116882,
				-0.0986597016453743
			],
			"translation":[
				-0.9325437545776367,
				1.2255220413208008,
				0.6882069110870361
			]
		},
		{
			"mesh":11,
			"name":"Cylinder.006",
			"rotation":[
				-0.6492502093315125,
				0.38378506898880005,
				-0.2879926264286041,
				0.5901216268539429
			],
			"scale":[
				-0.0986596941947937,
				-0.5713970065116882,
				-0.0986597016453743
			],
			"translation":[
				-0.4592118263244629,
				1.5376081466674805,
				0.6094251275062561
			]
		},
		{
			"mesh":12,
			"name":"Cylinder.007",
			"rotation":[
				-0.41827070713043213,
				0.6274282932281494,
				-0.5740340948104858,
				0.3191681504249573
			],
			"scale":[
				-0.0986597016453743,
				-0.5713970065116882,
				-0.0986597016453743
			],
			"translation":[
				-0.4438154399394989,
				1.2518202066421509,
				0.6095396280288696
			]
		},
		{
			"mesh":13,
			"name":"Cylinder.008",
			"rotation":[
				-0.41827070713043213,
				0.6274282932281494,
				-0.5740340948104858,
				0.3191681504249573
			],
			"scale":[
				-0.0986597016453743,
				-0.5713970065116882,
				-0.0986597016453743
			],
			"translation":[
				-0.9479401707649231,
				1.51131010055542,
				0.6880925297737122
			]
		}
	],
	"meshes":[
		{
			"name":"Plane.002",
			"primitives":[
				{
					"attributes":{
						"POSITION":0,
						"NORMAL":1,
						"TEXCOORD_0":2
					},
					"indices":3
				}
			]
		},
		{
			"name":"Plane.003",
			"primitives":[
				{
					"attributes":{
						"POSITION":4,
						"NORMAL":5,
						"TEXCOORD_0":6
					},
					"indices":7
				}
			]
		},
		{
			"name":"Cylinder.004",
			"primitives":[
				{
					"attributes":{
						"POSITION":8,
						"NORMAL":9,
						"TEXCOORD_0":10
					},
					"indices":11
				}
			]
		},
		{
			"name":"Cylinder",
			"primitives":[
				{
					"attributes":{
						"POSITION":12,
						"NORMAL":13,
						"TEXCOORD_0":14
					},
					"indices":15
				}
			]
		},
		{
			"name":"Cylinder.002",
			"primitives":[
				{
					"attributes":{
						"POSITION":16,
						"NORMAL":17,
						"TEXCOORD_0":18
					},
					"indices":15
				}
			]
		},
		{
			"name":"Cylinder.003",
			"primitives":[
				{
					"attributes":{
						"POSITION":19,
						"NORMAL":20,
						"TEXCOORD_0":21
					},
					"indices":15
				}
			]
		},
		{
			"name":"Plane.001",
			"primitives":[
				{
					"attributes":{
						"POSITION":22,
						"NORMAL":23,
						"TEXCOORD_0":24
					},
					"indices":25
				}
			]
		},
		{
			"name":"Plane",
			"primitives":[
				{
					"attributes":{
						"POSITION":26,
						"NORMAL":27,
						"TEXCOORD_0":28
					},
					"indices":29
				}
			]
		},
		{
			"name":"Cylinder.005",
			"primitives":[
				{
					"attributes":{
						"POSITION":30,
						"NORMAL":31,
						"TEXCOORD_0":32
					},
					"indices":33
				}
			]
		},
		{
			"name":"Cylinder.011",
			"primitives":[
				{
					"attributes":{
						"POSITION":34,
						"NORMAL":35,
						"TEXCOORD_0":36
					},
					"indices":33
				}
			]
		},
		{
			"name":"Cylinder.012",
			"primitives":[
				{
					"attributes":{
						"POSITION":37,
						"NORMAL":38,
						"TEXCOORD_0":39
					},
					"indices":33
				}
			]
		},
		{
			"name":"Cylinder.013",
			"primitives":[
				{
					"attributes":{
						"POSITION":40,
						"NORMAL":41,
						"TEXCOORD_0":42
					},
					"indices":33
				}
			]
		},
		{
			"name":"Cylinder.014",
			"primitives":[
				{
					"attributes":{
						"POSITION":43,
						"NORMAL":44,
						"TEXCOORD_0":45
					},
					"indices":33
				}
			]
		},
		{
			"name":"Cylinder.015",
			"primitives":[
				{
					"attributes":{
						"POSITION":46,
						"NORMAL":47,
						"TEXCOORD_0":48
					},
					"indices":33
				}
			]
		}
	],
	"accessors":[
		{
			"bufferView":0,
			"componentType":5126,
			"count":651,
			"max":[
				0.47231101989746094,
				0.0759052261710167,
				0.4632761478424072
			],
			"min":[
				-0.7699283957481384,
				-0.0759051963686943,
				-0.45487889647483826
			],
			"type":"VEC3"
		},
		{
			"bufferView":1,
			"componentType":5126,
			"count":651,
			"type":"VEC3"
		},
		{
			"bufferView":2,
			"componentType":5126,
			"count":651,
			"type":"VEC2"
		},
		{
			"bufferView":3,
			"componentType":5123,
			"count":2022,
			"type":"SCALAR"
		},
		{
			"bufferView":4,
			"componentType":5126,
			"count":885,
			"max":[
				4.430125713348389,
				0.5302023887634277,
				1.2636024951934814
			],
			"min":[
				-0.9810234308242798,
				-0.5302022695541382,
				-2.648987054824829
			],
			"type":"VEC3"
		},
		{
			"bufferView":5,
			"componentType":5126,
			"count":885,
			"type":"VEC3"
		},
		{
			"bufferView":6,
			"componentType":5126,
			"count":885,
			"type":"VEC2"
		},
		{
			"bufferView":7,
			"componentType":5123,
			"count":2316,
			"type":"SCALAR"
		},
		{
			"bufferView":8,
			"componentType":5126,
			"count":2714,
			"max":[
				0.9980264902114868,
				1.0000005960464478,
				0.9999995231628418
			],
			"min":[
				-0.9980264902114868,
				-1,
				-0.9999995231628418
			],
			"type":"VEC3"
		},
		{
			"bufferView":9,
			"componentType":5126,
			"count":2714,
			"type":"VEC3"
		},
		{
			"bufferView":10,
			"componentType":5126,
			"count":2714,
			"type":"VEC2"
		},
		{
			"bufferView":11,
			"componentType":5123,
			"count":5202,
			"type":"SCALAR"
		},
		{
			"bufferView":12,
			"componentType":5126,
			"count":508,
			"max":[
				0.9980267286300659,
				1.0000001192092896,
				1
			],
			"min":[
				-0.9980267286300659,
				-1,
				-1
			],
			"type":"VEC3"
		},
		{
			"bufferView":13,
			"componentType":5126,
			"count":508,
			"type":"VEC3"
		},
		{
			"bufferView":14,
			"componentType":5126,
			"count":508,
			"type":"VEC2"
		},
		{
			"bufferView":15,
			"componentType":5123,
			"count":1488,
			"type":"SCALAR"
		},
		{
			"bufferView":16,
			"componentType":5126,
			"count":508,
			"max":[
				0.9980267286300659,
				1.0000001192092896,
				1
			],
			"min":[
				-0.9980267286300659,
				-1,
				-1
			],
			"type":"VEC3"
		},
		{
			"bufferView":17,
			"componentType":5126,
			"count":508,
			"type":"VEC3"
		},
		{
			"bufferView":18,
			"componentType":5126,
			"count":508,
			"type":"VEC2"
		},
		{
			"bufferView":19,
			"componentType":5126,
			"count":508,
			"max":[
				0.9980267286300659,
				1.0000001192092896,
				1
			],
			"min":[
				-0.9980267286300659,
				-1,
				-1
			],
			"type":"VEC3"
		},
		{
			"bufferView":20,
			"componentType":5126,
			"count":508,
			"type":"VEC3"
		},
		{
			"bufferView":21,
			"componentType":5126,
			"count":508,
			"type":"VEC2"
		},
		{
			"bufferView":22,
			"componentType":5126,
			"count":3849,
			"max":[
				1.6347533464431763,
				0.3620157837867737,
				2.3308022022247314
			],
			"min":[
				-1.4540011882781982,
				-0.3620157837867737,
				-1.4522727727890015
			],
			"type":"VEC3"
		},
		{
			"bufferView":23,
			"componentType":5126,
			"count":3849,
			"type":"VEC3"
		},
		{
			"bufferView":24,
			"componentType":5126,
			"count":3849,
			"type":"VEC2"
		},
		{
			"bufferView":25,
			"componentType":5123,
			"count":6885,
			"type":"SCALAR"
		},
		{
			"bufferView":26,
			"componentType":5126,
			"count":178,
			"max":[
				-0.7407868504524231,
				0.08847235143184662,
				0.2547045350074768
			],
			"min":[
				-0.9870079755783081,
				-0.08847235143184662,
				-0.16143035888671875
			],
			"type":"VEC3"
		},
		{
			"bufferView":27,
			"componentType":5126,
			"count":178,
			"type":"VEC3"
		},
		{
			"bufferView":28,
			"componentType":5126,
			"count":178,
			"type":"VEC2"
		},
		{
			"bufferView":29,
			"componentType":5123,
			"count":318,
			"type":"SCALAR"
		},
		{
			"bufferView":30,
			"componentType":5126,
			"count":1600,
			"max":[
				1.0994888544082642,
				1.0075078010559082,
				1.101662516593933
			],
			"min":[
				-1.0994888544082642,
				-1,
				-1.1016629934310913
			],
			"type":"VEC3"
		},
		{
			"bufferView":31,
			"componentType":5126,
			"count":1600,
			"type":"VEC3"
		},
		{
			"bufferView":32,
			"componentType":5126,
			"count":1600,
			"type":"VEC2"
		},
		{
			"bufferView":33,
			"componentType":5123,
			"count":2988,
			"type":"SCALAR"
		},
		{
			"bufferView":34,
			"componentType":5126,
			"count":1600,
			"max":[
				1.0994888544082642,
				1.0075078010559082,
				1.101662516593933
			],
			"min":[
				-1.0994888544082642,
				-1,
				-1.1016629934310913
			],
			"type":"VEC3"
		},
		{
			"bufferView":35,
			"componentType":5126,
			"count":1600,
			"type":"VEC3"
		},
		{
			"bufferView":36,
			"componentType":5126,
			"count":1600,
			"type":"VEC2"
		},
		{
			"bufferView":37,
			"componentType":5126,
			"count":1600,
			"max":[
				1.0994888544082642,
				1.0075078010559082,
				1.101662516593933
			],
			"min":[
				-1.0994888544082642,
				-1,
				-1.1016629934310913
			],
			"type":"VEC3"
		},
		{
			"bufferView":38,
			"componentType":5126,
			"count":1600,
			"type":"VEC3"
		},
		{
			"bufferView":39,
			"componentType":5126,
			"count":1600,
			"type":"VEC2"
		},
		{
			"bufferView":40,
			"componentType":5126,
			"count":1600,
			"max":[
				1.0994888544082642,
				1.0075078010559082,
				1.101662516593933
			],
			"min":[
				-1.0994888544082642,
				-1,
				-1.1016629934310913
			],
			"type":"VEC3"
		},
		{
			"bufferView":41,
			"componentType":5126,
			"count":1600,
			"type":"VEC3"
		},
		{
			"bufferView":42,
			"componentType":5126,
			"count":1600,
			"type":"VEC2"
		},
		{
			"bufferView":43,
			"componentType":5126,
			"count":1600,
			"max":[
				1.0994888544082642,
				1.0075078010559082,
				1.101662516593933
			],
			"min":[
				-1.0994888544082642,
				-1,
				-1.1016629934310913
			],
			"type":"VEC3"
		},
		{
			"bufferView":44,
			"componentType":5126,
			"count":1600,
			"type":"VEC3"
		},
		{
			"bufferView":45,
			"componentType":5126,
			"count":1600,
			"type":"VEC2"
		},
		{
			"bufferView":46,
			"componentType":5126,
			"count":1600,
			"max":[
				1.0994888544082642,
				1.0075078010559082,
				1.101662516593933
			],
			"min":[
				-1.0994888544082642,
				-1,
				-1.1016629934310913
			],
			"type":"VEC3"
		},
		{
			"bufferView":47,
			"componentType":5126,
			"count":1600,
			"type":"VEC3"
		},
		{
			"bufferView":48,
			"componentType":5126,
			"count":1600,
			"type":"VEC2"
		}
	],
	"bufferViews":[
		{
			"buffer":0,
			"byteLength":7812,
			"byteOffset":0,
			"target":34962
		},
		{
			"buffer":0,
			"byteLength":7812,
			"byteOffset":7812,
			"target":34962
		},
		{
			"buffer":0,
			"byteLength":5208,
			"byteOffset":15624,
			"target":34962
		},
		{
			"buffer":0,
			"byteLength":4044,
			"byteOffset":20832,
			"target":34963
		},
		{
			"buffer":0,
			"byteLength":10620,
			"byteOffset":24876,
			"target":34962
		},
		{
			"buffer":0,
			"byteLength":10620,
			"byteOffset":35496,
			"target":34962
		},
		{
			"buffer":0,
			"byteLength":7080,
			"byteOffset":46116,
			"target":34962
		},
		{
			"buffer":0,
			"byteLength":4632,
			"byteOffset":53196,
			"target":34963
		},
		{
			"buffer":0,
			"byteLength":32568,
			"byteOffset":57828,
			"target":34962
		},
		{
			"buffer":0,
			"byteLength":32568,
			"byteOffset":90396,
			"target":34962
		},
		{
			"buffer":0,
			"byteLength":21712,
			"byteOffset":122964,
			"target":34962
		},
		{
			"buffer":0,
			"byteLength":10404,
			"byteOffset":144676,
			"target":34963
		},
		{
			"buffer":0,
			"byteLength":6096,
			"byteOffset":155080,
			"target":34962
		},
		{
			"buffer":0,
			"byteLength":6096,
			"byteOffset":161176,
			"target":34962
		},
		{
			"buffer":0,
			"byteLength":4064,
			"byteOffset":167272,
			"target":34962
		},
		{
			"buffer":0,
			"byteLength":2976,
			"byteOffset":171336,
			"target":34963
		},
		{
			"buffer":0,
			"byteLength":6096,
			"byteOffset":174312,
			"target":34962
		},
		{
			"buffer":0,
			"byteLength":6096,
			"byteOffset":180408,
			"target":34962
		},
		{
			"buffer":0,
			"byteLength":4064,
			"byteOffset":186504,
			"target":34962
		},
		{
			"buffer":0,
			"byteLength":6096,
			"byteOffset":190568,
			"target":34962
		},
		{
			"buffer":0,
			"byteLength":6096,
			"byteOffset":196664,
			"target":34962
		},
		{
			"buffer":0,
			"byteLength":4064,
			"byteOffset":202760,
			"target":34962
		},
		{
			"buffer":0,
			"byteLength":46188,
			"byteOffset":206824,
			"target":34962
		},
		{
			"buffer":0,
			"byteLength":46188,
			"byteOffset":253012,
			"target":34962
		},
		{
			"buffer":0,
			"byteLength":30792,
			"byteOffset":299200,
			"target":34962
		},
		{
			"buffer":0,
			"byteLength":13770,
			"byteOffset":329992,
			"target":34963
		},
		{
			"buffer":0,
			"byteLength":2136,
			"byteOffset":343764,
			"target":34962
		},
		{
			"buffer":0,
			"byteLength":2136,
			"byteOffset":345900,
			"target":34962
		},
		{
			"buffer":0,
			"byteLength":1424,
			"byteOffset":348036,
			"target":34962
		},
		{
			"buffer":0,
			"byteLength":636,
			"byteOffset":349460,
			"target":34963
		},
		{
			"buffer":0,
			"byteLength":19200,
			"byteOffset":350096,
			"target":34962
		},
		{
			"buffer":0,
			"byteLength":19200,
			"byteOffset":369296,
			"target":34962
		},
		{
			"buffer":0,
			"byteLength":12800,
			"byteOffset":388496,
			"target":34962
		},
		{
			"buffer":0,
			"byteLength":5976,
			"byteOffset":401296,
			"target":34963
		},
		{
			"buffer":0,
			"byteLength":19200,
			"byteOffset":407272,
			"target":34962
		},
		{
			"buffer":0,
			"byteLength":19200,
			"byteOffset":426472,
			"target":34962
		},
		{
			"buffer":0,
			"byteLength":12800,
			"byteOffset":445672,
			"target":34962
		},
		{
			"buffer":0,
			"byteLength":19200,
			"byteOffset":458472,
			"target":34962
		},
		{
			"buffer":0,
			"byteLength":19200,
			"byteOffset":477672,
			"target":34962
		},
		{
			"buffer":0,
			"byteLength":12800,
			"byteOffset":496872,
			"target":34962
		},
		{
			"buffer":0,
			"byteLength":19200,
			"byteOffset":509672,
			"target":34962
		},
		{
			"buffer":0,
			"byteLength":19200,
			"byteOffset":528872,
			"target":34962
		},
		{
			"buffer":0,
			"byteLength":12800,
			"byteOffset":548072,
			"target":34962
		},
		{
			"buffer":0,
			"byteLength":19200,
			"byteOffset":560872,
			"target":34962
		},
		{
			"buffer":0,
			"byteLength":19200,
			"byteOffset":580072,
			"target":34962
		},
		{
			"buffer":0,
			"byteLength":12800,
			"byteOffset":599272,
			"target":34962
		},
		{
			"buffer":0,
			"byteLength":19200,
			"byteOffset":612072,
			"target":34962
		},
		{
			"buffer":0,
			"byteLength":19200,
			"byteOffset":631272,
			"target":34962
		},
		{
			"buffer":0,
			"byteLength":12800,
			"byteOffset":650472,
			"target":34962
		}
	],
	"buffers":[
		{
			"byteLength":663272,
			"uri":"Snubnose.bin"
		}
	]
}
